<svg width="168" height="50" viewBox="0 0 168 50" fill="none" xmlns="http://www.w3.org/2000/svg">
<rect width="168" height="50" rx="5" fill="#333F51"/>
<path fill-rule="evenodd" clip-rule="evenodd" d="M62.8636 32.8876H56.9359L55.5123 37.1746H53.0016L58.6162 21.3139H61.2248L66.8395 37.1746H64.2859L62.8636 32.8876ZM57.5498 30.9094H62.2485L59.9322 23.952H59.8674L57.5498 30.9094ZM78.9652 31.3933C78.9652 34.9868 77.0794 37.2955 74.2336 37.2955C72.7626 37.374 71.377 36.5882 70.6662 35.2724H70.6123V41H68.285V25.6109H70.5377V27.5342H70.5805C71.3229 26.2266 72.71 25.4412 74.1908 25.4899C77.0684 25.4899 78.9652 27.8099 78.9652 31.3933ZM76.5731 31.3933C76.5731 29.0522 75.3868 27.513 73.5768 27.513C71.7986 27.513 70.6026 29.0846 70.6026 31.3933C70.6026 33.7233 71.7986 35.2837 73.5768 35.2837C75.3868 35.2837 76.5731 33.7557 76.5731 31.3933ZM91.4444 31.3933C91.4444 34.9868 89.5586 37.2955 86.7128 37.2955C85.2418 37.374 83.8562 36.5882 83.1453 35.2724H83.0915V41H80.7642V25.6109H83.0169V27.5342H83.0597C83.8021 26.2266 85.1892 25.4412 86.6699 25.4899C89.5476 25.4899 91.4444 27.8099 91.4444 31.3933ZM89.0523 31.3933C89.0523 29.0522 87.866 27.513 86.056 27.513C84.2778 27.513 83.0817 29.0846 83.0817 31.3933C83.0817 33.7233 84.2778 35.2837 86.056 35.2837C87.866 35.2837 89.0523 33.7557 89.0523 31.3933ZM99.6921 32.7554C99.8646 34.3282 101.363 35.3609 103.41 35.3609C105.372 35.3609 106.783 34.3282 106.783 32.91C106.783 31.6789 105.932 30.9418 103.916 30.4366L101.901 29.9414C99.0452 29.238 97.7195 27.8759 97.7195 25.6657C97.7195 22.9291 100.058 21.0494 103.378 21.0494C106.664 21.0494 108.917 22.9291 108.993 25.6657H106.643C106.503 24.0829 105.22 23.1275 103.345 23.1275C101.47 23.1275 100.187 24.0941 100.187 25.5011C100.187 26.6224 101.007 27.2822 103.011 27.7873L104.725 28.2164C107.915 28.986 109.241 30.2932 109.241 32.6131C109.241 35.5804 106.924 37.4389 103.238 37.4389C99.7887 37.4389 97.4602 35.6241 97.3098 32.7553L99.6921 32.7554ZM114.264 22.8743V25.6109H116.42V27.4905H114.264V33.8655C114.264 34.8558 114.696 35.3173 115.643 35.3173C115.899 35.3128 116.155 35.2944 116.409 35.2624V37.1309C115.983 37.2121 115.55 37.2488 115.116 37.2406C112.821 37.2406 111.926 36.3613 111.926 34.1186V27.4905H110.277V25.6109H111.925V22.8743H114.264ZM117.669 31.3933C117.669 27.755 119.77 25.4687 123.046 25.4687C126.333 25.4687 128.425 27.7549 128.425 31.3933C128.425 35.0417 126.344 37.318 123.046 37.318C119.749 37.318 117.669 35.0417 117.669 31.3933ZM126.053 31.3933C126.053 28.8975 124.932 27.4245 123.046 27.4245C121.16 27.4245 120.04 28.9087 120.04 31.3933C120.04 33.8992 121.16 35.361 123.046 35.361C124.932 35.361 126.053 33.8992 126.053 31.3933ZM130.343 25.6109H132.563V27.5791H132.617C132.927 26.3121 134.065 25.44 135.344 25.4899C135.612 25.4889 135.88 25.5186 136.142 25.5784V27.7986C135.803 27.6931 135.45 27.6446 135.096 27.6552C134.412 27.6269 133.75 27.905 133.283 28.4165C132.817 28.928 132.593 29.6217 132.671 30.3157V37.1745H130.343L130.343 25.6109ZM146.872 33.7782C146.559 35.8774 144.554 37.318 141.99 37.318C138.691 37.318 136.644 35.0641 136.644 31.4482C136.644 27.8211 138.702 25.4687 141.892 25.4687C145.029 25.4687 147.002 27.6664 147.002 31.1726V31.9858H138.994V32.1292C138.919 32.9901 139.21 33.8423 139.794 34.469C140.377 35.0956 141.197 35.4364 142.044 35.4046C143.173 35.5126 144.238 34.8511 144.662 33.7782L146.872 33.7782ZM139.005 30.3269L144.673 30.3269C144.715 29.5533 144.439 28.7969 143.911 28.2397C143.383 27.6826 142.651 27.3754 141.892 27.392C141.126 27.3874 140.391 27.6947 139.849 28.2459C139.306 28.797 139.003 29.5462 139.005 30.3269ZM57.2581 9.37551C58.2461 9.30319 59.2139 9.68657 59.895 10.4201C60.5761 11.1537 60.8987 12.1601 60.7742 13.1623C60.7742 15.597 59.4839 16.9965 57.2581 16.9965H54.559V9.37551H57.2581ZM55.7196 15.9188H57.1285C57.8346 15.9618 58.5221 15.6781 59.0001 15.1464C59.4782 14.6146 59.6959 13.8915 59.5928 13.1778C59.6884 12.4671 59.4675 11.7499 58.9907 11.2226C58.5138 10.6952 57.8308 10.4127 57.1285 10.4525H55.7196V15.9188ZM62.0852 14.1183C61.9885 13.0874 62.4731 12.0898 63.3359 11.5437C64.1987 10.9977 65.2904 10.9977 66.1531 11.5437C67.0159 12.0898 67.5006 13.0874 67.4039 14.1183C67.5024 15.1503 67.0182 16.1499 66.1546 16.6971C65.2911 17.2443 64.1979 17.2443 63.3344 16.6971C62.4709 16.1499 61.9866 15.1503 62.0852 14.1183ZM66.2592 14.1183C66.2592 12.8716 65.71 12.1426 64.7464 12.1426C63.779 12.1426 63.2348 12.8716 63.2348 14.1183C63.2348 15.375 63.779 16.0984 64.7464 16.0984C65.7101 16.0984 66.2592 15.37 66.2592 14.1183ZM74.4739 16.9964H73.3194L72.1539 12.7606H72.0658L70.9052 16.9964H69.7618L68.2074 11.2451H69.3362L70.3463 15.6337H70.4295L71.5889 11.2451H72.6565L73.8159 15.6337H73.904L74.9092 11.2451H76.0221L74.4739 16.9964ZM77.3295 11.2451H78.4008V12.1588H78.484C78.7732 11.4861 79.449 11.0746 80.1668 11.1341C80.7226 11.0915 81.2673 11.309 81.647 11.7251C82.0267 12.1412 82.2002 12.7109 82.1187 13.2732V16.9964H81.0058V13.5583C81.0058 12.634 80.612 12.1744 79.7889 12.1744C79.4119 12.1565 79.046 12.3074 78.7872 12.5875C78.5284 12.8676 78.4025 13.2491 78.4424 13.6318V16.9964H77.3295L77.3295 11.2451ZM83.892 9H85.0049V16.9964H83.892V9ZM86.5519 14.1183C86.4553 13.0874 86.94 12.0897 87.8029 11.5436C88.6657 10.9976 89.7575 10.9976 90.6203 11.5436C91.4831 12.0897 91.9679 13.0874 91.8712 14.1183C91.9697 15.1503 91.4853 16.1499 90.6218 16.6971C89.7582 17.2443 88.665 17.2443 87.8014 16.6971C86.9378 16.1499 86.4535 15.1503 86.5519 14.1183ZM90.7259 14.1183C90.7259 12.8716 90.1768 12.1426 89.2131 12.1426C88.2457 12.1426 87.7016 12.8716 87.7016 14.1183C87.7016 15.375 88.2458 16.0984 89.2131 16.0984C90.1768 16.0984 90.7259 15.37 90.7259 14.1183ZM93.0429 15.37C93.0429 14.3347 93.7987 13.7379 95.1402 13.6531L96.6677 13.5633V13.0668C96.6677 12.4594 96.2739 12.1164 95.5133 12.1164C94.892 12.1164 94.4615 12.349 94.338 12.7556H93.2605C93.3743 11.7678 94.2854 11.1342 95.5646 11.1342C96.9784 11.1342 97.7758 11.852 97.7758 13.0668V16.9964H96.7044V16.1882H96.6164C96.2525 16.7784 95.6054 17.1234 94.9226 17.0912C94.4438 17.142 93.9664 16.9839 93.6083 16.6559C93.2501 16.328 93.0447 15.8608 93.0429 15.37ZM96.6677 14.8785V14.3977L95.2907 14.4875C94.5141 14.5405 94.1619 14.8099 94.1619 15.3169C94.1619 15.8346 94.6021 16.1358 95.2076 16.1358C95.5659 16.1728 95.9237 16.0599 96.199 15.8229C96.4742 15.5859 96.6434 15.2451 96.6677 14.8785ZM99.2384 14.1183C99.2384 12.301 100.154 11.1497 101.579 11.1497C102.299 11.1159 102.972 11.5091 103.308 12.1587H103.392V9H104.505V16.9964H103.438V16.0878H103.35C102.989 16.732 102.307 17.1185 101.579 17.0912C100.145 17.0913 99.2384 15.94 99.2384 14.1183ZM100.388 14.1183C100.388 15.3382 100.952 16.0722 101.895 16.0722C102.833 16.0722 103.412 15.3276 103.412 14.1233C103.412 12.9246 102.827 12.1694 101.895 12.1694C100.958 12.1694 100.388 12.9084 100.388 14.1183ZM109.109 14.1183C109.012 13.0874 109.497 12.0898 110.36 11.5437C111.223 10.9977 112.314 10.9977 113.177 11.5437C114.04 12.0898 114.524 13.0874 114.428 14.1183C114.526 15.1503 114.042 16.1499 113.178 16.6971C112.315 17.2443 111.222 17.2443 110.358 16.6971C109.495 16.1499 109.01 15.1503 109.109 14.1183ZM113.283 14.1183C113.283 12.8716 112.734 12.1426 111.77 12.1426C110.803 12.1426 110.259 12.8716 110.259 14.1183C110.259 15.375 110.803 16.0984 111.77 16.0984C112.734 16.0984 113.283 15.37 113.283 14.1183ZM115.921 11.2451H116.992V12.1588H117.075C117.365 11.4861 118.04 11.0746 118.758 11.1341C119.314 11.0915 119.859 11.309 120.238 11.7251C120.618 12.1412 120.792 12.7109 120.71 13.2732V16.9964H119.597V13.5583C119.597 12.634 119.203 12.1744 118.38 12.1744C118.003 12.1565 117.638 12.3074 117.379 12.5875C117.12 12.8676 116.994 13.2491 117.034 13.6318V16.9964H115.921V11.2451ZM126.999 9.81325V11.2713H128.22V12.2274H126.999V15.1847C126.999 15.7872 127.242 16.051 127.796 16.051C127.938 16.0505 128.08 16.0418 128.22 16.0248V16.9702C128.021 17.0067 127.818 17.0261 127.615 17.0282C126.377 17.0282 125.885 16.5842 125.885 15.4753V12.2273H124.989V11.2713H125.885V9.81325H126.999ZM129.741 9H130.844V12.1694H130.932C131.235 11.4908 131.922 11.0788 132.651 11.1391C133.204 11.1084 133.741 11.3307 134.117 11.7453C134.492 12.16 134.667 12.7238 134.593 13.2832V16.9964H133.479V13.5632C133.479 12.6446 133.06 12.1793 132.273 12.1793C131.886 12.147 131.505 12.2905 131.231 12.5716C130.957 12.8528 130.819 13.2428 130.853 13.6374V16.9964H129.741L129.741 9ZM141.082 15.4435C140.77 16.5284 139.741 17.2293 138.639 17.1074C137.887 17.1277 137.164 16.8098 136.663 16.2381C136.161 15.6665 135.931 14.8988 136.034 14.1389C135.934 13.3768 136.163 12.6079 136.662 12.0314C137.161 11.455 137.88 11.1276 138.634 11.1341C140.203 11.1341 141.15 12.2274 141.15 14.0335V14.4295H137.168V14.4931C137.132 14.9199 137.275 15.342 137.561 15.6557C137.847 15.9694 138.25 16.1455 138.669 16.1407C139.214 16.2074 139.744 15.932 140.011 15.4435L141.082 15.4435ZM137.168 13.5901H140.016C140.044 13.1997 139.91 12.8154 139.645 12.5316C139.381 12.2479 139.011 12.0912 138.628 12.1002C138.239 12.0952 137.865 12.2506 137.59 12.5311C137.315 12.8116 137.163 13.1935 137.168 13.5901ZM40.3151 25.1667C40.318 27.8461 41.927 30.2643 44.4016 31.308C43.9257 32.8499 43.2083 34.3069 42.276 35.6253C41.0241 37.493 39.7114 39.3178 37.6279 39.3515C35.6035 39.3981 34.9231 38.1633 32.6012 38.1633C30.2575 38.1633 29.5323 39.3178 27.5907 39.3981C25.6065 39.4714 24.0901 37.4046 22.7926 35.5544C20.1993 31.7759 18.1799 24.9059 20.8871 20.2314C22.1584 17.9531 24.5354 16.5074 27.1484 16.4232C29.1344 16.3825 30.9787 17.7608 32.1997 17.7608C33.3975 17.7608 35.6764 16.112 38.027 16.358C40.2613 16.4278 42.3318 17.5441 43.6139 19.3702C41.5907 20.6107 40.3457 22.7983 40.3151 25.1667ZM36.4914 13.873C35.3892 15.2401 33.7193 16.0275 31.9605 16.0095C31.8486 14.2954 32.4246 12.6072 33.5614 11.3169C34.7128 10.009 36.3159 9.18179 38.0515 9C38.187 10.7649 37.6273 12.513 36.4914 13.873Z" fill="white"/>
</svg>
