<svg width="168" height="50" viewBox="0 0 168 50" fill="none" xmlns="http://www.w3.org/2000/svg">
<rect width="168" height="50" rx="5" fill="#333F51"/>
<path fill-rule="evenodd" clip-rule="evenodd" d="M59.0163 12.2409C59.0583 13.1693 58.7265 14.0747 58.0981 14.7458C57.3959 15.4921 56.4165 15.8974 55.4046 15.8606C53.8526 15.8481 52.4592 14.8851 51.8685 13.4168C51.2778 11.9486 51.6051 10.2611 52.6989 9.13471C53.4097 8.39239 54.3892 7.98432 55.4046 8.00747C55.9222 8.00571 56.4347 8.11227 56.9105 8.32059C57.3535 8.5034 57.7479 8.79097 58.0613 9.15976L57.4125 9.82358C56.917 9.22073 56.1733 8.89134 55.4046 8.93431C54.6319 8.93043 53.891 9.2488 53.3528 9.81599C52.8145 10.3832 52.5254 11.1502 52.552 11.9403C52.5356 13.1341 53.2229 14.2208 54.2941 14.6948C55.3653 15.1688 56.6101 14.9369 57.4492 14.1071C57.8259 13.6894 58.0432 13.147 58.0613 12.579H55.4046V11.6773H58.9673C59 11.8633 59.0164 12.0519 59.0163 12.2409ZM64.6235 9.10966H61.318V11.4894H64.3297V12.3912H61.318V14.7709H64.6235V15.6977H60.3385V8.18282H64.6235V9.10966ZM68.6392 15.6977H67.6965V9.10966H65.6397V8.18282H70.745V9.10966H68.6392V15.6977ZM74.3444 15.6977V8.18282H75.2871V15.6977H74.3444ZM79.4742 15.6977H78.5315V9.10966H76.4747V8.18282H81.5188V9.10966H79.4742V15.6977ZM91.0805 14.7208C89.5905 16.2366 87.1836 16.2366 85.6936 14.7208C84.2493 13.1567 84.2493 10.7113 85.6936 9.14723C86.4061 8.41296 87.3757 8 88.3871 8C89.3984 8 90.368 8.41296 91.0805 9.14723C92.531 10.7088 92.531 13.1592 91.0805 14.7208ZM86.3915 14.0945C87.4949 15.2187 89.2792 15.2187 90.3827 14.0945C91.4664 12.8723 91.4664 11.0082 90.3827 9.786C89.2792 8.66182 87.4949 8.66182 86.3915 9.786C85.3077 11.0082 85.3077 12.8723 86.3915 14.0945ZM93.4923 15.6977V8.18282H94.6432L98.2181 14.0319V8.18282H99.1608V15.6977H98.1814L94.4473 9.57308V15.6977H93.4923ZM84.3836 26.657C85.7738 26.6297 87.1154 27.1809 88.1009 28.1844C89.0864 29.1879 89.6315 30.5577 89.6113 31.98C89.6113 34.9166 87.2867 37.2984 84.4162 37.303C81.5458 37.3076 79.2139 34.9332 79.2049 31.9967C79.1959 29.0601 81.5132 26.6708 84.3836 26.657ZM84.3836 35.2114C85.1957 35.1922 85.9657 34.8382 86.519 34.2297C87.0722 33.6213 87.3618 32.81 87.3219 31.98C87.3188 30.6532 86.5231 29.4632 85.3155 28.9792C84.108 28.4952 82.7339 28.8155 81.8505 29.787C80.9672 30.7585 80.754 32.1836 81.3131 33.3809C81.8722 34.5781 83.0898 35.304 84.3836 35.2114ZM72.9855 26.657H72.9732C74.3634 26.6297 75.7049 27.1809 76.6905 28.1844C77.676 29.1879 78.2211 30.5577 78.2009 31.98C78.2009 34.9182 75.8738 37.3008 73.0018 37.3031C70.1297 37.3054 67.799 34.9266 67.7945 31.9884C67.79 29.0502 70.1134 26.6639 72.9855 26.657ZM72.9855 35.2114H72.9732C73.7853 35.1922 74.5553 34.8382 75.1086 34.2297C75.6618 33.6213 75.9514 32.81 75.9115 31.98C75.908 30.6521 75.1108 29.4616 73.9017 28.9787C72.6926 28.4957 71.3177 28.8187 70.4356 29.7928C69.5536 30.767 69.3438 32.194 69.9068 33.3904C70.4698 34.5869 71.691 35.3092 72.9855 35.2114ZM59.4081 28.2977L66.8395 28.2351C66.9249 28.7017 66.9659 29.1757 66.9619 29.6504C67.0195 31.599 66.3347 33.4942 65.052 34.9359C63.5863 36.5061 61.5282 37.351 59.4081 37.253C56.444 37.371 53.6544 35.8206 52.138 33.2124C50.6217 30.6042 50.6217 27.3564 52.138 24.7483C53.6544 22.1401 56.444 20.5897 59.4081 20.7077C61.4902 20.6892 63.491 21.5341 64.9541 23.0498L63.3993 24.6405C62.3265 23.5809 60.8868 22.9999 59.3958 23.0248C56.1503 23.0248 53.5192 25.7164 53.5192 29.0367C53.5192 32.357 56.1503 35.0486 59.3958 35.0486C60.9219 35.1108 62.4027 34.5103 63.4727 33.3953C64.1826 32.616 64.6141 31.6141 64.697 30.5522H59.4081V28.2977ZM114.881 30.0512L115.138 30.6148L108.172 33.5582C108.608 34.5754 109.608 35.2162 110.694 35.1739C111.741 35.1766 112.713 34.6152 113.252 33.6959L115.028 34.9484C114.061 36.4282 112.433 37.3127 110.694 37.3031C109.311 37.3238 107.979 36.7684 107.005 35.7645C106.031 34.7606 105.497 33.3945 105.527 31.98C105.443 30.5979 105.921 29.2417 106.849 28.2333C107.776 27.2249 109.071 26.6543 110.424 26.657C112.454 26.7334 114.227 28.0838 114.881 30.0512ZM107.78 31.8297L112.432 29.8508C112.066 29.1127 111.305 28.6692 110.498 28.7236C109.732 28.7589 109.012 29.1081 108.501 29.6925C107.99 30.2768 107.73 31.0471 107.78 31.8297ZM102.124 36.99V21.3339H104.413V36.99H102.124ZM98.3773 27.8468V26.9701H100.483V36.4514C100.483 40.3842 98.2671 41.9999 95.5859 41.9999C93.5649 42.0123 91.7388 40.7685 90.9703 38.8562L92.9659 38.0045C93.383 39.1205 94.4183 39.8678 95.5859 39.8957C97.2999 39.8957 98.365 38.8061 98.365 36.7645V36.0005H98.2916C97.6035 36.8125 96.5994 37.2711 95.5492 37.253C92.7702 37.1151 90.5863 34.77 90.5863 31.9237C90.5863 29.0774 92.7702 26.7322 95.5492 26.5943C96.596 26.5929 97.5937 27.0486 98.2916 27.8468H98.3773ZM95.7573 35.2114H95.745C96.5407 35.1801 97.2892 34.8171 97.8165 34.2067C98.3438 33.5963 98.6039 32.7917 98.5364 31.98C98.5969 31.1721 98.3359 30.3734 97.8127 29.765C97.2895 29.1566 96.5483 28.7901 95.7573 28.7486C94.1203 28.8962 92.8647 30.2988 92.8647 31.98C92.8647 33.6612 94.1203 35.0638 95.7573 35.2114ZM125.618 21.3339C127.396 21.2032 129.097 22.0998 130.025 23.6573C130.954 25.2148 130.954 27.1723 130.025 28.7298C129.097 30.2873 127.396 31.1839 125.618 31.0532H122.422V36.99H120.133V21.3339H125.618ZM125.606 28.8488L125.655 28.8864C127.105 28.8864 128.281 27.6836 128.281 26.1998C128.281 24.7161 127.105 23.5132 125.655 23.5132H122.41V28.8488H125.606ZM139.722 26.5943L139.783 26.6319C142.391 26.6319 144.423 28.2226 144.423 30.9655V36.99H142.219V35.7375H142.146C141.509 36.7504 140.382 37.3267 139.207 37.2405C138.254 37.3125 137.313 36.9872 136.599 36.3384C135.884 35.6897 135.456 34.7727 135.412 33.7961C135.412 31.5291 137.628 30.2767 139.82 30.2767C140.652 30.2731 141.472 30.4796 142.207 30.8778V30.715C142.149 30.1133 141.856 29.5608 141.396 29.1816C140.935 28.8024 140.345 28.6284 139.758 28.6985C138.903 28.6269 138.086 29.0789 137.677 29.8508L135.645 28.9866C136.417 27.4299 138.018 26.4902 139.722 26.5943ZM139.44 35.1739L139.501 35.2114C140.88 35.177 142.024 34.1085 142.182 32.7065C141.547 32.3437 140.828 32.1621 140.101 32.1804C138.95 32.1804 137.653 32.5937 137.653 33.8462C137.653 34.7856 138.693 35.1739 139.44 35.1739ZM152.454 26.9701H155.001L148.732 41.7369H146.345L148.671 36.4639L144.594 26.9701H147.043L149.761 33.7586H149.834L152.454 26.9701ZM131.874 36.99V21.3339H134.163V36.99H131.874ZM41.2208 23.9583C41.5303 24.1373 41.7152 24.4576 41.7151 24.8151C41.7151 25.1726 41.5302 25.493 41.2207 25.6715L35.6032 28.9138L31.6598 25.1019L35.9746 20.931L41.2208 23.9583ZM35.0841 20.4166L30.9488 24.4144L16.6583 10.6L29.3108 17.0837L35.0841 20.4166ZM16.8684 39.4L30.9488 25.7893L34.7128 29.4282L29.3325 32.5341L16.8684 39.4ZM15.8142 11.1592L30.2377 25.1016L15.8008 39.0574L15.8142 11.1592Z" fill="white"/>
</svg>
