<svg width="144" height="140" viewBox="0 0 144 140" fill="none" xmlns="http://www.w3.org/2000/svg">
<g opacity="0.3">
<mask id="mask0_129_3994" style="mask-type:alpha" maskUnits="userSpaceOnUse" x="4" y="0" width="279" height="279">
<circle cx="143.5" cy="139.5" r="137.576" fill="#C4C4C4" stroke="#F8BB54" stroke-width="3.84828"/>
</mask>
<g mask="url(#mask0_129_3994)">
<path d="M-77.0703 58.5041C-77.0703 58.5041 -12.111 46.4709 4.64937 4.3553C20.6784 -36.0172 86.7065 -46.8691 86.7065 -46.8691" stroke="white" stroke-width="4.32558" stroke-miterlimit="10"/>
<path d="M-77.0703 78.7461C-77.0703 78.7461 2.62465 64.8578 23.153 14.0267C42.7252 -34.499 123.657 -46.8691 123.657 -46.8691" stroke="white" stroke-width="4.32558" stroke-miterlimit="10"/>
<path d="M-77.0703 99.045C-77.0703 99.045 17.3038 83.2447 41.6004 23.8106C64.7721 -33.0368 160.609 -46.8691 160.609 -46.8691" stroke="white" stroke-width="4.32558" stroke-miterlimit="10"/>
<path d="M-77.0703 119.288C-77.0703 119.288 32.0392 101.632 60.104 33.4821C86.819 -31.5186 197.56 -46.8691 197.56 -46.8691" stroke="white" stroke-width="4.32558" stroke-miterlimit="10"/>
<path d="M-77.0703 139.53C-77.0703 139.53 46.7747 120.019 78.6076 43.2096C108.866 -30.0004 234.455 -46.8691 234.455 -46.8691" stroke="white" stroke-width="4.32558" stroke-miterlimit="10"/>
<path d="M-77.0703 159.828C-77.0703 159.828 61.4538 138.462 97.0551 52.937C130.969 -28.5386 271.405 -46.8691 271.405 -46.8691" stroke="white" stroke-width="4.32558" stroke-miterlimit="10"/>
<path d="M-77.0703 180.071C-77.0703 180.071 76.1892 156.792 115.559 62.6649C153.016 -27.0204 308.356 -46.8691 308.356 -46.8691" stroke="white" stroke-width="4.32558" stroke-miterlimit="10"/>
<path d="M-77.0703 200.313C-77.0703 200.313 90.9248 175.179 134.006 72.3364C175.063 -25.5022 345.308 -46.8691 345.308 -46.8691" stroke="white" stroke-width="4.32558" stroke-miterlimit="10"/>
<path d="M-77.0703 220.612C-77.0703 220.612 105.604 193.622 152.51 82.1199C197.11 -24.0404 382.202 -46.8691 382.202 -46.8691" stroke="white" stroke-width="4.32558" stroke-miterlimit="10"/>
<path d="M-77.0703 240.853C-77.0703 240.853 120.339 212.009 170.957 91.8478C219.156 -22.5222 419.153 -46.8691 419.153 -46.8691" stroke="white" stroke-width="4.32558" stroke-miterlimit="10"/>
<path d="M-77.0703 261.152C-77.0703 261.152 135.075 230.396 189.461 101.575C241.204 -21.004 456.104 -46.8691 456.104 -46.8691" stroke="white" stroke-width="4.32558" stroke-miterlimit="10"/>
<path d="M-77.0703 281.396C-77.0703 281.396 149.754 248.783 207.908 111.303C263.25 -19.5418 493.054 -46.8691 493.054 -46.8691" stroke="white" stroke-width="4.32558" stroke-miterlimit="10"/>
<path d="M-77.0703 301.636C-77.0703 301.636 164.489 267.17 226.412 120.974C285.297 -18.0236 530.005 -46.8691 530.005 -46.8691" stroke="white" stroke-width="4.32558" stroke-miterlimit="10"/>
<path d="M-77.0703 321.935C-77.0703 321.935 179.225 285.557 244.915 130.758C307.344 -16.5054 566.901 -46.8691 566.901 -46.8691" stroke="white" stroke-width="4.32558" stroke-miterlimit="10"/>
<path d="M-77.0703 342.179C-77.0703 342.179 193.904 303.944 263.363 140.43C329.391 -15.0437 603.852 -46.8691 603.852 -46.8691" stroke="white" stroke-width="4.32558" stroke-miterlimit="10"/>
<path d="M-77.0703 362.423C-77.0703 362.423 208.639 322.331 281.866 150.157C351.438 -13.5254 640.803 -46.8691 640.803 -46.8691" stroke="white" stroke-width="4.32558" stroke-miterlimit="10"/>
<path d="M-77.0703 382.722C-77.0703 382.722 223.375 340.773 300.314 159.885C373.485 -12.0072 677.754 -46.8691 677.754 -46.8691" stroke="white" stroke-width="4.32558" stroke-miterlimit="10"/>
<path d="M-77.0703 402.962C-77.0703 402.962 238.054 359.105 318.817 169.612C395.532 -10.5455 714.65 -46.8691 714.65 -46.8691" stroke="white" stroke-width="4.32558" stroke-miterlimit="10"/>
</g>
</g>
</svg>
