<svg width="139" height="139" viewBox="0 0 139 139" fill="none" xmlns="http://www.w3.org/2000/svg">
<g opacity="0.3">
<mask id="mask0_129_3973" style="mask-type:alpha" maskUnits="userSpaceOnUse" x="-140" y="-140" width="279" height="279">
<circle cx="-0.5" cy="-0.5" r="137.576" fill="#C4C4C4" stroke="#F8BB54" stroke-width="3.84828"/>
</mask>
<g mask="url(#mask0_129_3973)">
<path d="M-221.07 -0.470007C-221.07 -0.470007 -97.2253 -19.9814 -65.3924 -96.7904C-35.1343 -170 90.4545 -186.869 90.4545 -186.869" stroke="white" stroke-width="4.32558" stroke-miterlimit="10"/>
<path d="M-221.07 19.8285C-221.07 19.8285 -82.5462 -1.53846 -46.9449 -87.063C-13.0312 -168.539 127.405 -186.869 127.405 -186.869" stroke="white" stroke-width="4.32558" stroke-miterlimit="10"/>
<path d="M-221.07 40.0709C-221.07 40.0709 -67.8108 16.792 -28.4413 -77.3351C9.01593 -167.02 164.356 -186.869 164.356 -186.869" stroke="white" stroke-width="4.32558" stroke-miterlimit="10"/>
<path d="M-221.07 60.3134C-221.07 60.3134 -53.0752 35.179 -9.99406 -67.6636C31.0626 -165.502 201.308 -186.869 201.308 -186.869" stroke="white" stroke-width="4.32558" stroke-miterlimit="10"/>
<path d="M-221.07 80.6124C-221.07 80.6124 -38.3964 53.6224 8.50962 -57.8801C53.1098 -164.04 238.202 -186.869 238.202 -186.869" stroke="white" stroke-width="4.32558" stroke-miterlimit="10"/>
<path d="M-221.07 100.853C-221.07 100.853 -23.6606 72.0093 26.9573 -48.1522C75.1565 -162.522 275.153 -186.869 275.153 -186.869" stroke="white" stroke-width="4.32558" stroke-miterlimit="10"/>
<path d="M-221.07 121.152C-221.07 121.152 -8.92538 90.3958 45.4609 -38.4248C97.2035 -161.004 312.104 -186.869 312.104 -186.869" stroke="white" stroke-width="4.32558" stroke-miterlimit="10"/>
<path d="M-221.07 141.396C-221.07 141.396 5.75387 108.783 63.9081 -28.6969C119.25 -159.542 349.054 -186.869 349.054 -186.869" stroke="white" stroke-width="4.32558" stroke-miterlimit="10"/>
<path d="M-221.07 161.636C-221.07 161.636 20.4891 127.17 82.4118 -19.0259C141.297 -158.024 386.005 -186.869 386.005 -186.869" stroke="white" stroke-width="4.32558" stroke-miterlimit="10"/>
<path d="M-221.07 181.935C-221.07 181.935 35.2248 145.557 100.915 -9.24193C163.344 -156.505 422.901 -186.869 422.901 -186.869" stroke="white" stroke-width="4.32558" stroke-miterlimit="10"/>
<path d="M-221.07 202.179C-221.07 202.179 49.9038 163.944 119.363 0.429514C185.391 -155.044 459.852 -186.869 459.852 -186.869" stroke="white" stroke-width="4.32558" stroke-miterlimit="10"/>
<path d="M-221.07 222.423C-221.07 222.423 64.6395 182.331 137.866 10.157C207.438 -153.525 496.803 -186.869 496.803 -186.869" stroke="white" stroke-width="4.32558" stroke-miterlimit="10"/>
<path d="M-221.07 242.722C-221.07 242.722 79.3747 200.773 156.314 19.8849C229.485 -152.007 533.754 -186.869 533.754 -186.869" stroke="white" stroke-width="4.32558" stroke-miterlimit="10"/>
<path d="M-221.07 262.962C-221.07 262.962 94.054 219.105 174.817 29.6124C251.532 -150.545 570.65 -186.869 570.65 -186.869" stroke="white" stroke-width="4.32558" stroke-miterlimit="10"/>
</g>
</g>
</svg>
